<?xml version="1.0" encoding="UTF-8"?>
<svg id="b" data-name="Layer 2" xmlns="http://www.w3.org/2000/svg" viewBox="0 0 416.861 512">
  <g id="c" data-name="apple-icon">
    <path id="d" data-name="apple-icon" d="M403.548,174.558c-2.97,2.304-55.404,31.85-55.404,97.546,0,75.988,66.72,102.871,68.717,103.537-.307,1.639-10.599,36.816-35.178,72.66-21.916,31.542-44.804,63.033-79.624,63.033s-43.78-20.226-83.976-20.226c-39.172,0-53.1,20.892-84.949,20.892s-54.073-29.187-79.624-65.031C23.913,404.879,0,339.49,0,277.429,0,177.887,64.723,125.094,128.422,125.094c33.847,0,62.061,22.223,83.311,22.223,20.226,0,51.768-23.554,90.275-23.554,14.593,0,67.027,1.331,101.54,50.795h0ZM283.728,81.621c15.925-18.895,27.19-45.112,27.19-71.329,0-3.636-.307-7.322-.973-10.292-25.91.973-56.735,17.256-75.323,38.813-14.593,16.59-28.214,42.807-28.214,69.383,0,3.994.666,7.988.973,9.268,1.639.307,4.301.666,6.964.666,23.247,0,52.485-15.566,69.383-36.509h0Z" fill="#e1effa"/>
  </g>
</svg>