<?xml version="1.0" encoding="UTF-8"?>
<svg id="b" data-name="Layer 2" xmlns="http://www.w3.org/2000/svg" viewBox="0 0 448 447.99">
  <g id="c" data-name="apple music">
    <path id="d" data-name="apple music" d="M447.988,140.137h.012c0-5.351,0-10.702-.025-16.053-.025-4.505-.075-9.01-.199-13.515-.261-9.819-.846-19.712-2.588-29.419-1.767-9.856-4.667-19.028-9.221-27.988-4.48-8.798-10.329-16.837-17.31-23.819-6.981-6.981-15.033-12.83-23.831-17.31-8.947-4.555-18.119-7.442-27.963-9.221-9.707-1.742-19.612-2.327-29.431-2.588-4.505-.124-9.01-.174-13.515-.199-5.351-.025-10.702-.025-16.053-.025h-167.726c-5.351,0-10.702,0-16.053.025-4.505.025-9.01.075-13.515.199-9.819.274-19.724.846-29.431,2.601-9.856,1.767-19.015,4.667-27.963,9.221-8.798,4.48-16.85,10.329-23.831,17.31-6.981,6.981-12.83,15.02-17.31,23.819-4.555,8.96-7.454,18.132-9.221,27.988-1.742,9.707-2.327,19.612-2.588,29.419-.124,4.505-.174,9.01-.199,13.515-.025,5.339-.025,10.69-.025,16.041v167.714c0,5.351,0,10.702.025,16.053.025,4.505.075,9.01.199,13.515.261,9.819.846,19.712,2.588,29.419,1.767,9.856,4.667,19.028,9.221,27.988,4.48,8.798,10.329,16.837,17.31,23.819s15.033,12.83,23.831,17.31c8.947,4.555,18.119,7.442,27.963,9.221,9.707,1.742,19.612,2.327,29.431,2.588,4.505.125,9.01.174,13.515.199,5.351.037,10.702.025,16.053.025h167.714c5.351,0,10.702,0,16.053-.025,4.505-.025,9.01-.075,13.515-.199,9.819-.261,19.725-.846,29.431-2.588,9.856-1.767,19.015-4.667,27.963-9.221,8.798-4.48,16.85-10.329,23.831-17.31,6.981-6.981,12.83-15.02,17.31-23.819,4.555-8.96,7.454-18.132,9.221-27.988,1.742-9.707,2.327-19.612,2.588-29.419.124-4.505.174-9.01.199-13.515.037-5.351.025-10.702.025-16.053v-167.714ZM327.936,291.536c0,5.675-.05,10.814-1.245,16.501-1.157,5.513-3.26,10.702-6.521,15.369-3.248,4.654-7.404,8.475-12.258,11.337-4.903,2.9-10.055,4.555-15.556,5.662-10.329,2.078-17.397,2.551-24.03,1.22-6.396-1.294-11.822-4.231-16.165-8.213-6.434-5.886-10.441-13.851-11.312-22.176-1.02-9.756,2.215-20.172,9.545-27.851,3.696-3.883,8.338-6.944,14.535-9.346,6.484-2.514,13.639-4.02,24.64-6.235,2.899-.585,5.799-1.17,8.699-1.755,3.82-.772,7.081-1.742,9.719-4.965,2.663-3.236,2.7-7.193,2.7-11.1v-98.672c0-7.554-3.397-9.607-10.603-8.226-5.164,1.008-115.845,23.333-115.845,23.333-6.247,1.518-8.437,3.559-8.437,11.3v144.542c0,5.675-.286,10.814-1.481,16.501-1.157,5.513-3.26,10.702-6.521,15.369-3.248,4.654-7.404,8.475-12.258,11.337-4.903,2.9-10.055,4.629-15.556,5.737-10.329,2.091-17.397,2.551-24.03,1.22-6.396-1.282-11.822-4.306-16.165-8.288-6.434-5.886-10.18-13.851-11.051-22.176-1.02-9.756,1.954-20.172,9.284-27.851,3.696-3.883,8.338-6.944,14.535-9.346,6.484-2.514,13.639-4.02,24.64-6.235,2.9-.585,5.799-1.17,8.699-1.755,3.82-.772,7.081-1.742,9.719-4.965,2.638-3.223,2.949-7.006,2.949-10.901V114.252c0-2.24.187-3.758.299-4.505.535-3.509,1.941-6.521,4.48-8.649,2.103-1.767,4.829-2.999,8.301-3.733l.05-.012,133.156-26.868c1.157-.236,10.777-1.941,11.86-2.041,7.205-.622,11.25,4.107,11.225,11.772v211.319Z" fill="#e1effa" fill-rule="evenodd"/>
  </g>
</svg>