<?xml version="1.0" encoding="UTF-8"?>
<svg id="b" data-name="Layer 2" xmlns="http://www.w3.org/2000/svg" viewBox="0 0 448 341.355">
  <g id="c" data-name="discord">
    <path id="d" data-name="discord" d="M379.829,28.83c50.596,74.39,75.583,158.301,66.242,254.9-.039.409-.252.784-.588,1.03-38.315,28.134-75.437,45.209-112.039,56.532-.584.177-1.217-.036-1.574-.532-8.456-11.766-16.139-24.17-22.87-37.195-.386-.767-.034-1.691.762-1.994,12.202-4.598,23.806-10.108,34.966-16.632.879-.515.935-1.775.123-2.38-2.369-1.758-4.715-3.606-6.961-5.454-.42-.342-.986-.409-1.462-.179-72.458,33.46-151.833,33.46-225.148,0-.476-.213-1.042-.14-1.45.196-2.24,1.848-4.592,3.679-6.938,5.438-.812.605-.745,1.865.14,2.38,11.161,6.401,22.764,12.034,34.95,16.654.79.302,1.165,1.204.773,1.971-6.586,13.042-14.269,25.446-22.882,37.212-.375.476-.991.694-1.574.515-36.428-11.323-73.55-28.398-111.865-56.532-.319-.246-.549-.638-.582-1.047C-5.954,200.156,9.955,115.551,68.033,28.813c.14-.23.353-.409.599-.515C97.209,15.183,127.824,5.534,159.822.024c.582-.09,1.165.179,1.467.694,3.954,7,8.473,15.977,11.53,23.313,33.729-5.152,67.984-5.152,102.418,0,3.058-7.179,7.42-16.313,11.357-23.313.288-.524.879-.804,1.467-.694,32.015,5.527,62.63,15.176,91.185,28.274.252.106.459.286.582.532h0ZM189.967,187.702c.353-24.702-17.657-45.142-40.264-45.142-22.422,0-40.258,20.261-40.258,45.142s18.189,45.136,40.258,45.136c22.428,0,40.264-20.261,40.264-45.136ZM338.826,187.702c.353-24.702-17.657-45.142-40.258-45.142-22.428,0-40.264,20.261-40.264,45.142s18.189,45.136,40.264,45.136c22.602,0,40.258-20.261,40.258-45.136Z" fill="#e1effa"/>
  </g>
</svg>