<?xml version="1.0" encoding="UTF-8"?>
<svg id="b" data-name="Layer 2" xmlns="http://www.w3.org/2000/svg" viewBox="0 0 508.599 387.529">
  <g id="c" data-name="discord">
    <path id="d" data-name="discord" d="M431.207,32.73c57.44,84.453,85.807,179.713,75.203,289.38-.045.464-.286.89-.668,1.17-43.498,31.94-85.642,51.324-127.194,64.179-.663.201-1.381-.041-1.786-.604-9.6-13.357-18.322-27.439-25.964-42.226-.439-.871-.038-1.92.865-2.263,13.853-5.22,27.026-11.475,39.696-18.882.998-.585,1.062-2.015.14-2.702-2.689-1.996-5.353-4.094-7.902-6.192-.477-.388-1.119-.464-1.659-.203-82.259,37.986-172.37,37.986-255.602,0-.54-.242-1.182-.159-1.647.223-2.543,2.098-5.213,4.177-7.877,6.173-.922.687-.846,2.117.159,2.702,12.67,7.267,25.843,13.662,39.677,18.907.896.343,1.322,1.367.877,2.238-7.476,14.807-16.199,28.888-25.977,42.245-.426.54-1.125.788-1.786.585-41.355-12.855-83.499-32.239-126.997-64.179-.362-.28-.623-.725-.661-1.189C-6.76,227.23,11.302,131.182,77.235,32.711c.159-.261.401-.464.68-.585C110.358,17.237,145.114,6.283,181.441.027c.661-.102,1.322.203,1.666.788,4.488,7.947,9.619,18.138,13.09,26.466,38.291-5.849,77.18-5.849,116.272,0,3.471-8.15,8.424-18.519,12.893-26.466.326-.595.998-.913,1.666-.788,36.346,6.275,71.102,17.229,103.519,32.099.286.121.521.324.661.604h0ZM215.663,213.091c.401-28.043-20.045-51.248-45.71-51.248-25.455,0-45.704,23.001-45.704,51.248s20.649,51.241,45.704,51.241c25.462,0,45.71-23.001,45.71-51.241ZM384.657,213.091c.401-28.043-20.045-51.248-45.704-51.248-25.462,0-45.71,23.001-45.71,51.248s20.649,51.241,45.71,51.241c25.659,0,45.704-23.001,45.704-51.241Z" fill="#e1effa"/>
  </g>
</svg>