<?xml version="1.0" encoding="UTF-8"?>
<svg id="b" data-name="Layer 2" xmlns="http://www.w3.org/2000/svg" viewBox="0 0 448 511.999">
  <g id="c" data-name="discord-2">
    <path id="d" data-name="discord-2" d="M395.519,0H52.482C23.553,0,0,23.552,0,52.736v346.111c0,29.185,23.552,52.736,52.481,52.736h290.304l-13.569-47.36,32.769,30.464,30.975,28.672,55.041,48.64V52.736c0-29.185-23.551-52.736-52.481-52.736ZM296.704,334.338s-9.216-11.009-16.896-20.738c33.537-9.473,46.336-30.464,46.336-30.464-10.497,6.912-20.48,11.777-29.44,15.103-12.799,5.378-25.088,8.96-37.119,11.009-24.577,4.608-47.105,3.328-66.304-.255-14.593-2.818-27.137-6.912-37.632-11.007-5.889-2.305-12.289-5.12-18.69-8.704-.767-.513-1.535-.768-2.303-1.281-.511-.255-.768-.511-1.024-.767-4.608-2.56-7.168-4.352-7.168-4.352,0,0,12.289,20.48,44.8,30.207-7.679,9.73-17.152,21.248-17.152,21.248-56.578-1.792-78.08-38.911-78.08-38.911,0-82.432,36.864-149.249,36.864-149.249,36.864-27.648,71.936-26.88,71.936-26.88l2.56,3.073c-46.079,13.309-67.328,33.535-67.328,33.535,0,0,5.632-3.071,15.102-7.423,27.393-12.033,49.154-15.36,58.114-16.128,1.535-.257,2.816-.513,4.352-.513,17.155-2.235,34.516-2.406,51.713-.511,24.318,2.816,50.431,9.984,77.054,24.575,0,0-20.223-19.199-63.744-32.511l3.584-4.095s35.072-.77,71.936,26.88c0,0,36.865,66.815,36.865,149.247,0,0-21.761,37.119-78.337,38.911v.002ZM177.663,214.785c-14.591,0-26.11,12.8-26.11,28.415s11.774,28.417,26.11,28.417c14.593,0,26.112-12.799,26.112-28.417.257-15.615-11.519-28.415-26.11-28.415M271.105,214.785c-14.593,0-26.113,12.799-26.113,28.415s11.777,28.417,26.113,28.417c14.591,0,26.11-12.799,26.11-28.417s-11.519-28.415-26.11-28.415" fill="#e1effa"/>
  </g>
</svg>