<?xml version="1.0" encoding="UTF-8"?>
<svg id="b" data-name="Layer 2" xmlns="http://www.w3.org/2000/svg" viewBox="0 0 448 448">
  <g id="c" data-name="instagram">
    <path d="M131.23,1.551c-23.834,1.125-40.113,4.942-54.338,10.516-14.726,5.741-27.209,13.434-39.626,25.903-12.432,12.476-20.067,24.981-25.764,39.721-5.516,14.261-9.254,30.548-10.306,54.396C.15,155.981-.09,163.601.027,224.428c.116,60.82.384,68.455,1.524,92.354,1.139,23.827,4.943,40.099,10.517,54.331,5.748,14.726,13.433,27.202,25.909,39.627,12.469,12.425,24.981,20.053,39.728,25.758,14.247,5.509,30.54,9.261,54.382,10.306,23.892,1.053,31.519,1.285,92.331,1.169,60.841-.116,68.468-.385,92.36-1.517,23.834-1.139,40.098-4.957,54.338-10.516,14.726-5.763,27.209-13.434,39.626-25.91,12.418-12.469,20.053-24.981,25.75-39.729,5.516-14.247,9.268-30.54,10.306-54.367,1.045-23.907,1.292-31.542,1.176-92.362-.116-60.827-.392-68.447-1.524-92.332-1.132-23.849-4.95-40.113-10.517-54.353-5.755-14.726-13.433-27.195-25.902-39.627-12.469-12.418-24.981-20.068-39.728-25.75-14.254-5.516-30.54-9.275-54.382-10.306C292.029.143,284.402-.089,223.568.027c-60.819.116-68.446.377-92.339,1.524M133.843,406.488c-21.838-.951-33.697-4.58-41.601-7.621-10.466-4.05-17.934-8.905-25.794-16.707-7.845-7.831-12.715-15.278-16.801-25.721-3.07-7.904-6.764-19.748-7.787-41.587-1.111-23.609-1.364-30.693-1.473-90.504-.116-59.796.101-66.88,1.132-90.511.936-21.824,4.587-33.698,7.62-41.594,4.05-10.48,8.89-17.934,16.707-25.794,7.831-7.86,15.277-12.716,25.728-16.802,7.896-3.085,19.741-6.75,41.572-7.788,23.624-1.118,30.7-1.357,90.495-1.473,59.81-.116,66.893.094,90.524,1.132,21.823.951,33.697,4.565,41.586,7.621,10.473,4.05,17.941,8.876,25.794,16.707,7.853,7.831,12.723,15.263,16.808,25.736,3.084,7.875,6.75,19.734,7.78,41.558,1.125,23.624,1.379,30.707,1.487,90.504.116,59.811-.101,66.894-1.139,90.511-.951,21.838-4.572,33.705-7.62,41.616-4.05,10.458-8.891,17.927-16.715,25.787-7.823,7.831-15.27,12.715-25.728,16.802-7.882,3.077-19.74,6.75-41.557,7.788-23.623,1.11-30.7,1.364-90.517,1.473-59.796.116-66.872-.109-90.502-1.132M316.452,104.262c.029,14.835,12.091,26.846,26.925,26.817,14.842-.029,26.853-12.084,26.832-26.919-.029-14.835-12.091-26.853-26.933-26.824-14.842.029-26.853,12.091-26.824,26.926M108.985,224.218c.123,63.527,51.718,114.911,115.229,114.788,63.519-.123,114.932-51.704,114.808-115.231-.124-63.505-51.725-114.919-115.251-114.795-63.512.123-114.91,51.726-114.786,115.238M149.33,224.138c-.073-41.231,33.298-74.725,74.521-74.798,41.231-.08,74.732,33.277,74.811,74.515.08,41.238-33.29,74.725-74.528,74.805-41.223.08-74.725-33.284-74.804-74.522" fill="#e1effa"/>
  </g>
</svg>