<?xml version="1.0" encoding="UTF-8"?>
<svg id="b" data-name="Layer 2" xmlns="http://www.w3.org/2000/svg" viewBox="0 0 448 194.349">
  <g id="c" data-name="soundcloud">
    <path id="d" data-name="soundcloud-cloud" d="M59.652,94.113l4.548,48.981-4.548,47.406c-.175,1.574-1.225,2.624-2.624,2.624s-2.449-1.225-2.624-2.624l-4.023-47.406,4.023-48.981c.175-1.574,1.225-2.624,2.624-2.624,1.225,0,2.449,1.05,2.624,2.624ZM74.871,94.638c-1.574,0-2.974,1.225-2.974,2.974l-3.674,45.482,3.674,47.756c.175,1.749,1.399,2.974,2.974,2.974s2.799-1.225,2.974-2.974l4.198-47.756-4.198-45.482c-.175-1.749-1.399-2.974-2.974-2.974ZM21.692,100.936c-.875,0-1.749.7-1.924,1.749l-4.373,40.234,4.373,39.36c.175,1.05.875,1.749,1.924,1.749.875,0,1.749-.7,1.924-1.749l5.073-39.36-5.073-40.234c-.35-.875-1.05-1.749-1.924-1.749ZM5.073,116.33c-.875,0-1.749.7-1.749,1.749l-3.324,25.015,3.324,24.49c.175,1.05.875,1.749,1.749,1.749s1.574-.7,1.749-1.749l3.849-24.49-3.849-24.84c-.175-1.05-.875-1.924-1.749-1.924ZM111.082,48.456c-2.099,0-3.674,1.574-3.848,3.674l-3.324,90.964,3.324,47.581c.175,2.099,1.749,3.674,3.848,3.674s3.674-1.574,3.848-3.674l3.674-47.581-3.674-90.964c-.175-2.099-1.924-3.674-3.848-3.674ZM39.185,93.064c-1.225,0-2.099.875-2.274,2.274l-4.198,47.756,4.198,46.007c.175,1.225,1.05,2.274,2.274,2.274s2.099-.875,2.274-2.099l4.723-46.007-4.723-47.756c-.175-1.399-1.05-2.449-2.274-2.449ZM92.889,65.774c-1.749,0-3.324,1.399-3.324,3.324l-3.499,73.996,3.499,47.756c.175,1.924,1.574,3.324,3.324,3.324s3.324-1.399,3.324-3.324l4.023-47.756-4.023-73.996c0-1.924-1.574-3.324-3.324-3.324ZM203.97,23.616c-3.149,0-5.598,2.449-5.598,5.598l-2.099,113.706,2.099,45.657c0,3.149,2.624,5.598,5.598,5.598,3.149,0,5.598-2.624,5.598-5.598l2.449-45.657-2.449-113.706c.175-2.974-2.449-5.598-5.598-5.598ZM129.274,40.409c-2.274,0-4.023,1.749-4.198,4.198l-3.149,98.487,3.149,47.057c0,2.274,1.924,4.023,4.198,4.023s4.023-1.749,4.198-4.198l3.499-47.057-3.499-98.487c0-2.099-1.924-4.023-4.198-4.023ZM392.722,84.317c-7.522,0-14.694,1.574-21.342,4.198C367.007,38.835,325.373,0,274.643,0c-12.42,0-24.49,2.449-35.161,6.647-4.198,1.574-5.248,3.324-5.248,6.472v174.757c0,3.324,2.624,6.123,5.948,6.472h152.715c30.438,0,55.103-24.665,55.103-55.103-.175-30.263-24.84-54.929-55.278-54.929ZM222.863,12.945c-3.324,0-5.948,2.799-6.123,6.123l-2.449,124.027,2.449,44.957c0,3.324,2.799,5.948,6.123,5.948s5.948-2.799,6.123-6.123l2.624-45.132-2.624-124.027c-.175-2.974-2.799-5.773-6.123-5.773ZM147.817,36.736c-2.449,0-4.373,1.924-4.548,4.548l-2.799,101.81,2.799,46.707c0,2.449,2.099,4.548,4.548,4.548s4.373-1.924,4.548-4.548l3.149-46.707-3.149-101.81c-.175-2.624-2.099-4.548-4.548-4.548ZM166.36,39.01c-2.624,0-4.898,2.099-4.898,4.898l-2.624,99.186,2.624,46.357c0,2.799,2.274,4.898,4.898,4.898s4.898-2.099,4.898-4.898l2.974-46.357-2.974-99.186c0-2.799-2.099-4.898-4.898-4.898ZM185.078,42.159c-2.974,0-5.248,2.274-5.248,5.248l-2.449,95.688,2.449,46.007c0,2.974,2.449,5.248,5.248,5.248,2.974,0,5.248-2.274,5.248-5.248l2.624-46.007-2.624-95.688c0-2.799-2.274-5.248-5.248-5.248Z" fill="#e1effa"/>
  </g>
</svg>