<?xml version="1.0" encoding="UTF-8"?>
<svg id="b" data-name="Layer 2" xmlns="http://www.w3.org/2000/svg" viewBox="0 0 448 447.992">
  <g id="c" data-name="spotify">
    <path d="M223.998.003C100.289.003,0,100.289,0,223.997s100.289,223.995,223.998,223.995,224.002-100.279,224.002-223.995S347.721.013,223.995.013l.003-.013v.003ZM326.723,323.07c-4.012,6.579-12.624,8.669-19.205,4.627-52.591-32.125-118.8-39.399-196.772-21.584-7.514,1.71-15.003-2.997-16.716-10.513-1.721-7.517,2.97-15.006,10.503-16.716,85.328-19.495,158.519-11.102,217.564,24.981,6.582,4.039,8.669,12.624,4.627,19.206h0s0,0,0,0ZM354.141,262.08c-5.057,8.215-15.809,10.809-24.02,5.756-60.211-37.011-151.99-47.73-223.209-26.107-9.236,2.789-18.991-2.416-21.793-11.636-2.783-9.236,2.426-18.97,11.645-21.78,81.35-24.682,182.482-12.728,251.627,29.763,8.212,5.057,10.806,15.809,5.753,24.011v-.003l-.003-.003h0ZM356.497,198.569c-72.197-42.88-191.306-46.821-260.233-25.903-11.068,3.357-22.774-2.889-26.128-13.961-3.353-11.074,2.89-22.77,13.965-26.134,79.125-24.02,210.659-19.38,293.779,29.964,9.976,5.91,13.241,18.765,7.328,28.708-5.887,9.956-18.779,13.239-28.702,7.325h-.01Z" fill="#e1effa"/>
  </g>
</svg>