<?xml version="1.0" encoding="UTF-8"?>
<svg id="b" data-name="Layer 2" xmlns="http://www.w3.org/2000/svg" viewBox="0 0 448 511.95">
  <g id="c" data-name="tiktok">
    <path d="M448,209.9c-44.041.094-86.997-13.653-122.8-39.3v178.8c-.028,89.802-72.849,162.577-162.65,162.55C72.748,511.922-.028,439.101,0,349.299c.028-89.801,72.849-162.577,162.65-162.55,7.477.002,14.944.52,22.35,1.55v89.9c-39.299-12.371-81.186,9.458-93.558,48.758-12.371,39.299,9.458,81.186,48.758,93.558,39.299,12.371,81.186-9.458,93.558-48.758,2.277-7.234,3.438-14.773,3.442-22.358V0h88c-.05,7.443.586,14.874,1.9,22.2h0c6.185,33.003,25.678,62.007,53.9,80.2,19.878,13.128,43.178,20.119,67,20.1v87.4Z" fill="#e1effa"/>
  </g>
</svg>