<?xml version="1.0" encoding="UTF-8"?>
<svg id="b" data-name="Layer 2" xmlns="http://www.w3.org/2000/svg" viewBox="0 0 448 364.029">
  <g id="c" data-name="twitter">
    <path d="M402.135,90.624c.273,3.949.273,7.899.273,11.885,0,121.45-92.457,261.52-261.52,261.52v-.073c-49.942.073-98.846-14.233-140.888-41.205,7.262.874,14.56,1.31,21.877,1.329,41.387.036,81.592-13.85,114.152-39.422-39.331-.746-73.82-26.39-85.869-63.828,13.778,2.657,27.974,2.111,41.497-1.583-42.88-8.663-73.729-46.338-73.729-90.091v-1.165c12.777,7.116,27.082,11.066,41.715,11.503C19.256,112.501,6.807,58.773,31.195,16.767c46.666,57.422,115.517,92.33,189.429,96.025-7.408-31.923,2.712-65.375,26.591-87.816,37.019-34.799,95.242-33.015,130.041,3.986,20.585-4.059,40.314-11.612,58.368-22.314-6.862,21.276-21.222,39.349-40.405,50.833,18.218-2.148,36.018-7.025,52.781-14.469-12.34,18.491-27.883,34.599-45.865,47.612h0Z" fill="#e1effa"/>
  </g>
</svg>