<?xml version="1.0" encoding="UTF-8"?>
<svg id="b" data-name="Layer 2" xmlns="http://www.w3.org/2000/svg" viewBox="0 0 512 416.033">
  <g id="c" data-name="twitter">
    <path d="M459.583,103.57c.312,4.514.312,9.027.312,13.583,0,138.801-105.666,298.88-298.88,298.88v-.083c-57.076.083-112.967-16.266-161.015-47.092,8.299.998,16.64,1.498,25.002,1.518,47.3.042,93.248-15.829,130.46-45.054-44.949-.853-84.366-30.16-98.136-72.947,15.746,3.037,31.97,2.413,47.425-1.81-49.006-9.901-84.262-52.958-84.262-102.962v-1.331c14.602,8.133,30.951,12.647,47.674,13.146C22.007,128.572,7.779,67.17,35.652,19.163c53.332,65.625,132.02,105.52,216.49,109.742-8.466-36.484,3.099-74.715,30.389-100.362,42.308-39.77,108.848-37.732,148.618,4.555,23.525-4.638,46.073-13.271,66.707-25.501-7.842,24.316-24.253,44.97-46.177,58.095,20.821-2.454,41.164-8.029,60.321-16.536-14.103,21.133-31.866,39.541-52.417,54.414h0Z" fill="#e1effa"/>
  </g>
</svg>