<?xml version="1.0" encoding="UTF-8"?>
<svg id="b" data-name="Layer 2" xmlns="http://www.w3.org/2000/svg" viewBox="0 0 448 313.615">
  <g id="c" data-name="youtube">
    <path d="M438.632,48.975c-5.162-19.287-20.321-34.445-39.608-39.608C364.102,0,223.999,0,223.999,0c0,0-140.101,0-175.025,9.367C29.687,14.53,14.53,29.687,9.367,48.975,0,83.898,0,156.807,0,156.807c0,0,0,72.909,9.367,107.833,5.163,19.287,20.32,34.444,39.607,39.606,34.924,9.368,175.025,9.368,175.025,9.368,0,0,140.103,0,175.025-9.368,19.287-5.162,34.446-20.319,39.608-39.606,9.368-34.924,9.368-107.833,9.368-107.833,0,0-.038-72.909-9.368-107.833ZM179.157,224.005V89.621l116.389,67.193-116.389,67.192Z" fill="#e1effa"/>
  </g>
</svg>